<svg width="160" height="160" viewBox="0 0 160 160" fill="none" xmlns="http://www.w3.org/2000/svg">
<path d="M156.148 80.0491C156.148 102.392 150.42 113.932 138.204 115.938C149.423 108.09 149.436 87.7708 149.436 80.0491C149.436 72.3275 149.423 52.0084 138.204 44.166C150.42 46.1659 156.148 57.712 156.148 80.0491ZM146.596 80.0491C146.596 102.519 141.273 114.325 130.355 116.029C125.884 115.54 121.582 114.192 117.51 112.307C121.365 104.404 121.975 91.0395 121.975 80.0491C121.975 69.0588 121.371 55.694 117.51 47.7912C121.582 45.9061 125.878 44.5587 130.355 44.0693C141.273 45.7731 146.596 57.5852 146.596 80.0491ZM114.948 49.066C117.721 54.7636 119.123 65.1195 119.123 80.0491C119.123 94.9788 117.721 105.335 114.948 111.032C99.6741 102.918 87.989 87.5291 83.2642 81.2998C82.9077 80.8286 82.5996 80.4177 82.3277 80.0733L82.3458 80.0491L82.3277 80.025C82.5996 79.6745 82.9077 79.2697 83.2642 78.7985C87.989 72.5692 99.6681 57.1804 114.942 49.066M111.976 45.1085C101.608 50.5221 92.9676 60.2738 87.0887 68.0921C94.5385 51.9964 101.674 43.8518 108.362 43.8518C109.686 43.8518 110.888 44.2747 111.969 45.1085M73.9112 68.0921C68.0324 60.2738 59.3925 50.5221 49.0245 45.1085C50.106 44.2687 51.3083 43.8518 52.6376 43.8518C59.326 43.8518 66.4676 51.9964 73.9112 68.0921ZM43.49 47.7972C39.6353 55.7001 39.025 69.0649 39.025 80.0552C39.025 91.0455 39.6353 104.41 43.49 112.313C39.4178 114.198 35.122 115.546 30.6449 116.035C19.7271 114.331 14.4041 102.519 14.4041 80.0552C14.4041 57.5912 19.7271 45.7731 30.6449 44.0693C35.1159 44.5587 39.4178 45.9061 43.49 47.7912M22.7903 44.166C11.5704 52.0145 11.5584 72.3336 11.5584 80.0491C11.5584 87.7647 11.5704 108.09 22.7903 115.938C10.5735 113.938 4.84576 102.392 4.84576 80.0491C4.84576 57.706 10.5735 46.1659 22.7903 44.166ZM49.0245 114.996C59.3925 109.582 68.0324 99.8305 73.9112 92.0122C66.4615 108.108 59.326 116.253 52.6376 116.253C51.3144 116.253 50.112 115.83 49.0245 114.996ZM77.7237 78.7985C78.0802 79.2697 78.3944 79.6806 78.6602 80.031L78.6421 80.0552L78.6602 80.0794C78.3883 80.4298 78.0802 80.8346 77.7237 81.3119C72.9989 87.5412 61.3198 102.93 46.0458 111.044C43.2725 105.341 41.8708 94.9909 41.8708 80.0612C41.8708 65.1316 43.2725 54.7757 46.0458 49.0781C61.3198 57.1924 73.005 72.5753 77.7237 78.8105M87.0887 92.0183C92.9676 99.8365 101.608 109.588 111.976 115.002C110.894 115.836 109.692 116.259 108.368 116.259C101.68 116.259 94.5385 108.108 87.0948 92.0183M159 80.0491C159 68.7869 157.568 60.2617 154.626 53.9721C150.59 45.3683 143.69 41 134.125 41C132.863 41 131.618 41.0785 130.385 41.2054C129.455 41.0846 128.5 41 127.479 41C123.05 41 118.803 42.0453 114.785 43.7733C113.075 42.015 110.967 41 108.368 41C102.284 41 96.1154 46.1236 90.0251 56.2197C86.6235 61.8629 83.8563 68.0438 81.9289 72.6961V42.4259H79.0832V72.6961C74.3523 61.2949 64.6792 41 52.6376 41C50.0395 41 47.9309 42.0211 46.221 43.7733C42.2031 42.0453 37.9556 41 33.5269 41C32.5058 41 31.5451 41.0846 30.6207 41.2054C29.3881 41.0785 28.1435 41 26.8807 41C17.3043 41 10.4104 45.3683 6.37437 53.9781C3.43194 60.2617 2 68.793 2 80.0491C2 91.3053 3.43194 99.8426 6.37437 106.12C10.4104 114.73 17.3042 119.098 26.8747 119.098C28.1375 119.098 29.3821 119.02 30.6147 118.893C31.5451 119.014 32.4997 119.098 33.5208 119.098C37.9496 119.098 42.1971 118.053 46.215 116.325C47.9248 118.083 50.0335 119.098 52.6315 119.098C58.7158 119.098 64.8846 113.975 70.9749 103.873C74.3765 98.2294 77.1437 92.0485 79.0711 87.3962V117.672H81.9168V87.4022C86.6416 98.8034 96.3087 119.098 108.356 119.098C110.954 119.098 113.063 118.077 114.773 116.325C118.791 118.053 123.038 119.098 127.467 119.098C128.488 119.098 129.449 119.014 130.373 118.893C131.606 119.02 132.856 119.098 134.113 119.098C143.684 119.098 150.578 114.73 154.614 106.12C157.556 99.8365 158.988 91.3053 158.988 80.0491" fill="url(#paint0_linear_881_3267)"/>
<defs>
<linearGradient id="paint0_linear_881_3267" x1="-0.33415" y1="80.0491" x2="159" y2="80.0491" gradientUnits="userSpaceOnUse">
<stop stop-color="#E41300"/>
<stop offset="1" stop-color="#FF8618"/>
</linearGradient>
</defs>
</svg>
